<svg xmlns="http://www.w3.org/2000/svg" xmlns:xlink="http://www.w3.org/1999/xlink" width="122" height="122" viewBox="0 0 122 122"><defs><style>.a{fill:#ffe600;}.b{clip-path:url(#a);}</style><clipPath id="a"><rect class="a" width="122" height="122" transform="translate(0)"/></clipPath></defs><g transform="translate(0.126 0.126)"><g class="b" transform="translate(-0.126 -0.126)"><path class="a" d="M879.106,711.125h6.023L877.3,695.513l-7.831,15.612h6.023v31.643c.6.038,1.2.059,1.809.059s1.211-.021,1.809-.059Z" transform="translate(-816.451 -653.04)"/><path class="a" d="M774.365,965.1v18.034a28.306,28.306,0,0,0,3.617,1.031V965.1h4.21l-6.019-12-6.019,12Z" transform="translate(-723.158 -895.02)"/><path class="a" d="M1032.8,965.1v19.065a28.288,28.288,0,0,0,3.617-1.031V965.1h4.211l-6.019-12-6.019,12Z" transform="translate(-965.93 -895.02)"/><path class="a" d="M935.615,226.635h.032a2.721,2.721,0,0,0,2.848-1.856,16.625,16.625,0,0,0-2.555-17.046.444.444,0,0,0-.616,0,16.626,16.626,0,0,0-2.555,17.046,2.721,2.721,0,0,0,2.847,1.856" transform="translate(-874.705 -194.706)"/><path class="a" d="M777.94,250.787l.031-.008a2.721,2.721,0,0,0,2.3-2.506,16.625,16.625,0,0,0-6.714-15.875.444.444,0,0,0-.6.153,16.625,16.625,0,0,0,1.764,17.146,2.721,2.721,0,0,0,3.22,1.09" transform="translate(-724.287 -217.937)"/><path class="a" d="M614.618,321.508a2.722,2.722,0,0,0,3.39.255l.028-.015a2.721,2.721,0,0,0,1.6-3,16.625,16.625,0,0,0-10.451-13.707.444.444,0,0,0-.54.3,16.625,16.625,0,0,0,5.973,16.169" transform="translate(-571.155 -286.216)"/><path class="a" d="M462.945,435.793a2.721,2.721,0,0,0,3.346-.6l.023-.022a2.721,2.721,0,0,0,.805-3.3A16.626,16.626,0,0,0,453.588,421.2a.443.443,0,0,0-.449.422,16.625,16.625,0,0,0,9.806,14.175" transform="translate(-425.355 -395.347)"/><path class="a" d="M340.16,583.394a2.722,2.722,0,0,0,3.093-1.41l.017-.027a2.721,2.721,0,0,0-.041-3.4,16.625,16.625,0,0,0-15.762-6.976.443.443,0,0,0-.33.52,16.626,16.626,0,0,0,13.023,11.291" transform="translate(-306.977 -536.495)"/><path class="a" d="M258.5,743.039a2.721,2.721,0,0,0,2.645-2.135l.01-.03a2.721,2.721,0,0,0-.885-3.282,16.626,16.626,0,0,0-17-2.838.444.444,0,0,0-.19.586,16.625,16.625,0,0,0,15.422,7.7" transform="translate(-227.985 -688.794)"/><path class="a" d="M223.017,902.821a2.721,2.721,0,0,0,2.031-2.725c0-.01,0-.021,0-.032a2.721,2.721,0,0,0-1.673-2.958,16.625,16.625,0,0,0-17.173,1.48.444.444,0,0,0-.039.615,16.625,16.625,0,0,0,16.852,3.621" transform="translate(-193.251 -840.798)"/><path class="a" d="M235.858,1052.688a2.722,2.722,0,0,0,1.29-3.145c0-.01,0-.021-.006-.031a2.721,2.721,0,0,0-2.357-2.449,16.625,16.625,0,0,0-16.265,5.7.444.444,0,0,0,.115.605,16.626,16.626,0,0,0,17.223-.684" transform="translate(-204.887 -982.944)"/><path class="a" d="M296.25,1183.539a2.721,2.721,0,0,0,.467-3.367l-.014-.029a2.721,2.721,0,0,0-2.892-1.786,16.624,16.624,0,0,0-14.336,9.57.444.444,0,0,0,.262.558,16.626,16.626,0,0,0,16.512-4.946" transform="translate(-262.191 -1106.617)"/><path class="a" d="M400.484,1294.807a2.722,2.722,0,0,0-.385-3.378l-.02-.024a2.721,2.721,0,0,0-3.245-1.011,16.626,16.626,0,0,0-11.505,12.835.444.444,0,0,0,.393.475,16.625,16.625,0,0,0,14.763-8.9" transform="translate(-361.65 -1211.699)"/><path class="a" d="M540.362,1381.946l-.026-.019a2.721,2.721,0,0,0-3.395-.172,16.626,16.626,0,0,0-7.952,15.293.444.444,0,0,0,.5.362,16.626,16.626,0,0,0,12.087-12.289,2.721,2.721,0,0,0-1.213-3.175" transform="translate(-496.578 -1297.211)"/><path class="a" d="M697.651,1446.431l-.03-.011a2.72,2.72,0,0,0-3.331.677,16.626,16.626,0,0,0-3.9,16.79.444.444,0,0,0,.573.227,16.626,16.626,0,0,0,8.651-14.909,2.721,2.721,0,0,0-1.964-2.774" transform="translate(-647.453 -1358.174)"/><path class="a" d="M857.724,1480.372l-.032,0a2.721,2.721,0,0,0-3.058,1.484,16.625,16.625,0,0,0,.4,17.232.444.444,0,0,0,.611.077,16.625,16.625,0,0,0,4.672-16.591,2.721,2.721,0,0,0-2.593-2.2" transform="translate(-800.44 -1390.3)"/><path class="a" d="M1010.516,1480.367l-.032,0a2.72,2.72,0,0,0-2.592,2.2,16.625,16.625,0,0,0,4.672,16.591.444.444,0,0,0,.611-.077,16.626,16.626,0,0,0,.4-17.232,2.721,2.721,0,0,0-3.058-1.484" transform="translate(-945.916 -1390.299)"/><path class="a" d="M1146.547,1446.419l-.03.012a2.721,2.721,0,0,0-1.964,2.774,16.626,16.626,0,0,0,8.651,14.909.443.443,0,0,0,.573-.227,16.625,16.625,0,0,0-3.9-16.789,2.722,2.722,0,0,0-3.331-.677" transform="translate(-1074.862 -1358.175)"/><path class="a" d="M1265.64,1381.755a2.722,2.722,0,0,0-3.4.172l-.026.019a2.722,2.722,0,0,0-1.213,3.175,16.626,16.626,0,0,0,12.087,12.289.443.443,0,0,0,.5-.362,16.627,16.627,0,0,0-7.952-15.293" transform="translate(-1184.151 -1297.21)"/><path class="a" d="M1361.7,1290.395a2.721,2.721,0,0,0-3.245,1.011l-.02.024a2.721,2.721,0,0,0-.385,3.377,16.624,16.624,0,0,0,14.763,8.9.443.443,0,0,0,.393-.475,16.625,16.625,0,0,0-11.505-12.834" transform="translate(-1275.032 -1211.699)"/><path class="a" d="M1432.8,1178.357a2.721,2.721,0,0,0-2.892,1.786l-.014.029a2.721,2.721,0,0,0,.467,3.367,16.626,16.626,0,0,0,16.512,4.946.444.444,0,0,0,.263-.558,16.625,16.625,0,0,0-14.336-9.57" transform="translate(-1342.569 -1106.617)"/><path class="a" d="M1474.22,1047.063a2.72,2.72,0,0,0-2.356,2.449c0,.01,0,.021-.006.031a2.722,2.722,0,0,0,1.29,3.145,16.625,16.625,0,0,0,17.223.684.443.443,0,0,0,.116-.605,16.626,16.626,0,0,0-16.266-5.7" transform="translate(-1382.265 -982.944)"/><path class="a" d="M1482.188,897.105a2.72,2.72,0,0,0-1.674,2.958c0,.01,0,.022,0,.032a2.721,2.721,0,0,0,2.031,2.726A16.626,16.626,0,0,0,1499.4,899.2a.443.443,0,0,0-.039-.615,16.625,16.625,0,0,0-17.173-1.48" transform="translate(-1390.461 -840.797)"/><path class="a" d="M1455.709,737.593a2.721,2.721,0,0,0-.885,3.282c0,.01.006.02.01.03a2.721,2.721,0,0,0,2.645,2.135,16.625,16.625,0,0,0,15.422-7.7.443.443,0,0,0-.19-.586,16.626,16.626,0,0,0-17,2.837" transform="translate(-1366.146 -688.794)"/><path class="a" d="M1397.622,578.56a2.722,2.722,0,0,0-.042,3.4l.017.027a2.721,2.721,0,0,0,3.093,1.41,16.626,16.626,0,0,0,13.024-11.291.444.444,0,0,0-.331-.52,16.625,16.625,0,0,0-15.761,6.976" transform="translate(-1312.02 -536.496)"/><path class="a" d="M1312.286,431.874a2.722,2.722,0,0,0,.806,3.3l.023.022a2.721,2.721,0,0,0,3.346.6,16.625,16.625,0,0,0,9.806-14.175.444.444,0,0,0-.449-.422,16.627,16.627,0,0,0-13.532,10.677" transform="translate(-1232.198 -395.348)"/><path class="a" d="M1206.51,321.747l.028.015a2.721,2.721,0,0,0,3.39-.255,16.626,16.626,0,0,0,5.973-16.169.444.444,0,0,0-.54-.3,16.625,16.625,0,0,0-10.452,13.707,2.722,2.722,0,0,0,1.6,3" transform="translate(-1131.538 -286.216)"/><path class="a" d="M1081.142,250.779l.031.008a2.721,2.721,0,0,0,3.22-1.09,16.626,16.626,0,0,0,1.764-17.146.444.444,0,0,0-.6-.153,16.625,16.625,0,0,0-6.714,15.875,2.721,2.721,0,0,0,2.3,2.506" transform="translate(-1012.973 -217.937)"/></g></g></svg>