<svg xmlns="http://www.w3.org/2000/svg" width="24" height="24" viewBox="0 0 24 24"><defs><style>.a{fill:none;opacity:0;}.b{fill:#fff;}</style></defs><g transform="translate(5557 -324)"><rect class="a" width="24" height="24" transform="translate(-5557 324)"/><g transform="translate(-5555 329)"><path class="b" d="M19,26.981c.042,0,4.167,0,6.891.2l.12.011a1.583,1.583,0,0,1,1.142.473h0a3.165,3.165,0,0,1,.46,1.3,28.791,28.791,0,0,1,.182,3.061v1.51a28.945,28.945,0,0,1-.182,3.063,3.1,3.1,0,0,1-.458,1.282h0a1.605,1.605,0,0,1-1.14.473l-.124.013c-2.676.183-6.707.2-6.889.2-.209,0-5.091-.049-6.649-.183-.093-.015-.182-.027-.287-.038a1.886,1.886,0,0,1-1.224-.46h0a3.131,3.131,0,0,1-.458-1.292,28.8,28.8,0,0,1-.182-3.061V32.032a28.938,28.938,0,0,1,.182-3.061,3.177,3.177,0,0,1,.46-1.3h0a1.6,1.6,0,0,1,1.142-.473l.12-.011c2.727-.2,6.849-.2,6.889-.2H19M19,25.8h0s-4.2,0-7,.2a2.855,2.855,0,0,0-2,.841,4.313,4.313,0,0,0-.795,1.977A29.945,29.945,0,0,0,9,32.032v1.51a29.935,29.935,0,0,0,.2,3.222,4.28,4.28,0,0,0,.795,1.975,3.419,3.419,0,0,0,2.205.852c1.6.152,6.8.2,6.8.2s4.2,0,7-.207a2.857,2.857,0,0,0,2-.843,4.3,4.3,0,0,0,.795-1.975,29.947,29.947,0,0,0,.2-3.222v-1.51a29.95,29.95,0,0,0-.2-3.222,4.291,4.291,0,0,0-.795-1.977,2.855,2.855,0,0,0-2-.841c-2.8-.2-7.005-.2-7.005-.2Z" transform="translate(-9 -25.79)"/><path class="b" d="M54.13,47.61v6.02l5.141-3.01Z" transform="translate(-45.953 -43.62)"/></g></g></svg>