<svg xmlns="http://www.w3.org/2000/svg" xmlns:xlink="http://www.w3.org/1999/xlink" width="60" height="60" viewBox="0 0 60 60"><defs><style>.a{fill:#ffe600;}.b{clip-path:url(#a);}</style><clipPath id="a"><rect class="a" width="60" height="60"/></clipPath></defs><g transform="translate(0.126 0.126)"><g class="b" transform="translate(-0.126 -0.126)"><path class="a" d="M874.207,703.191h2.962l-3.852-7.678-3.852,7.678h2.962v15.562c.294.018.591.029.89.029s.6-.01.889-.029Z" transform="translate(-843.393 -674.625)"/><path class="a" d="M772.226,959.006v8.869a13.922,13.922,0,0,0,1.779.507v-9.376h2.071l-2.96-5.9-2.96,5.9Z" transform="translate(-747.042 -924.539)"/><path class="a" d="M1030.66,959.006v9.376a13.912,13.912,0,0,0,1.779-.507v-8.869h2.071l-2.96-5.9-2.96,5.9Z" transform="translate(-997.773 -924.539)"/><path class="a" d="M933.513,216.966h.016a1.338,1.338,0,0,0,1.4-.913,8.176,8.176,0,0,0-1.257-8.383.218.218,0,0,0-.3,0,8.177,8.177,0,0,0-1.257,8.383,1.338,1.338,0,0,0,1.4.913" transform="translate(-903.557 -201.263)"/><path class="a" d="M774.594,241.411l.015,0a1.338,1.338,0,0,0,1.129-1.232,8.176,8.176,0,0,0-3.3-7.807.218.218,0,0,0-.294.075,8.176,8.176,0,0,0,.868,8.432,1.338,1.338,0,0,0,1.583.536" transform="translate(-748.208 -225.255)"/><path class="a" d="M611.43,313.13a1.338,1.338,0,0,0,1.667.125l.014-.008a1.338,1.338,0,0,0,.787-1.475,8.176,8.176,0,0,0-5.14-6.741.218.218,0,0,0-.266.146,8.176,8.176,0,0,0,2.937,7.952" transform="translate(-590.055 -295.774)"/><path class="a" d="M457.961,428.374a1.338,1.338,0,0,0,1.646-.293l.011-.011a1.338,1.338,0,0,0,.4-1.624,8.177,8.177,0,0,0-6.655-5.251.218.218,0,0,0-.221.208,8.176,8.176,0,0,0,4.823,6.971" transform="translate(-439.475 -408.482)"/><path class="a" d="M333.535,577.324a1.338,1.338,0,0,0,1.521-.693l.008-.013a1.338,1.338,0,0,0-.02-1.672,8.176,8.176,0,0,0-7.752-3.431.218.218,0,0,0-.162.256,8.176,8.176,0,0,0,6.4,5.553" transform="translate(-317.215 -554.258)"/><path class="a" d="M250.642,738.228a1.338,1.338,0,0,0,1.3-1.05l0-.015a1.338,1.338,0,0,0-.435-1.614,8.177,8.177,0,0,0-8.361-1.4.218.218,0,0,0-.094.288,8.176,8.176,0,0,0,7.585,3.786" transform="translate(-235.633 -711.55)"/><path class="a" d="M214.4,899.042a1.338,1.338,0,0,0,1-1.34c0-.005,0-.011,0-.016a1.338,1.338,0,0,0-.823-1.455,8.176,8.176,0,0,0-8.446.728.218.218,0,0,0-.019.3,8.176,8.176,0,0,0,8.288,1.781" transform="translate(-199.76 -868.538)"/><path class="a" d="M227.009,1049.645a1.339,1.339,0,0,0,.634-1.547l0-.015a1.338,1.338,0,0,0-1.159-1.2,8.176,8.176,0,0,0-8,2.805.218.218,0,0,0,.057.3,8.177,8.177,0,0,0,8.47-.336" transform="translate(-211.778 -1015.345)"/><path class="a" d="M287.711,1180.9a1.338,1.338,0,0,0,.23-1.656l-.007-.014a1.338,1.338,0,0,0-1.422-.878,8.176,8.176,0,0,0-7.05,4.706.218.218,0,0,0,.129.274,8.177,8.177,0,0,0,8.121-2.432" transform="translate(-270.961 -1143.073)"/><path class="a" d="M392.779,1292.474a1.339,1.339,0,0,0-.189-1.661l-.01-.012a1.338,1.338,0,0,0-1.6-.5,8.177,8.177,0,0,0-5.658,6.312.218.218,0,0,0,.193.233,8.176,8.176,0,0,0,7.261-4.375" transform="translate(-373.68 -1251.601)"/><path class="a" d="M534.566,1381.589l-.013-.009a1.338,1.338,0,0,0-1.669-.085,8.177,8.177,0,0,0-3.911,7.521.218.218,0,0,0,.245.178,8.177,8.177,0,0,0,5.944-6.044,1.338,1.338,0,0,0-.6-1.562" transform="translate(-513.032 -1339.916)"/><path class="a" d="M693.542,1446.283l-.015-.005a1.338,1.338,0,0,0-1.638.333,8.177,8.177,0,0,0-1.918,8.257.218.218,0,0,0,.282.112,8.176,8.176,0,0,0,4.255-7.332,1.338,1.338,0,0,0-.966-1.364" transform="translate(-668.855 -1402.878)"/><path class="a" d="M855.03,1480.355l-.016,0a1.338,1.338,0,0,0-1.5.73,8.176,8.176,0,0,0,.2,8.475.218.218,0,0,0,.3.038,8.176,8.176,0,0,0,2.3-8.16,1.338,1.338,0,0,0-1.275-1.081" transform="translate(-826.857 -1436.057)"/><path class="a" d="M1008.874,1480.352l-.016,0a1.338,1.338,0,0,0-1.275,1.081,8.176,8.176,0,0,0,2.3,8.16.218.218,0,0,0,.3-.038,8.177,8.177,0,0,0,.2-8.475,1.338,1.338,0,0,0-1.5-.73" transform="translate(-977.103 -1436.057)"/><path class="a" d="M1145.532,1446.277l-.015.006a1.338,1.338,0,0,0-.966,1.364,8.177,8.177,0,0,0,4.255,7.332.218.218,0,0,0,.282-.112,8.176,8.176,0,0,0-1.917-8.257,1.339,1.339,0,0,0-1.638-.333" transform="translate(-1110.277 -1402.878)"/><path class="a" d="M1263.226,1381.494a1.339,1.339,0,0,0-1.67.085l-.013.009a1.339,1.339,0,0,0-.6,1.562,8.177,8.177,0,0,0,5.944,6.044.218.218,0,0,0,.245-.178,8.177,8.177,0,0,0-3.911-7.521" transform="translate(-1223.149 -1339.915)"/><path class="a" d="M1359.635,1290.3a1.338,1.338,0,0,0-1.6.5l-.01.012a1.338,1.338,0,0,0-.189,1.661,8.176,8.176,0,0,0,7.26,4.375.218.218,0,0,0,.193-.233,8.176,8.176,0,0,0-5.658-6.312" transform="translate(-1317.011 -1251.601)"/><path class="a" d="M1431.138,1178.355a1.338,1.338,0,0,0-1.422.878l-.007.014a1.338,1.338,0,0,0,.23,1.656,8.177,8.177,0,0,0,8.121,2.432.219.219,0,0,0,.129-.274,8.176,8.176,0,0,0-7.051-4.706" transform="translate(-1386.761 -1143.073)"/><path class="a" d="M1472.983,1046.879a1.338,1.338,0,0,0-1.159,1.2l0,.016a1.339,1.339,0,0,0,.634,1.547,8.176,8.176,0,0,0,8.47.336.218.218,0,0,0,.057-.3,8.176,8.176,0,0,0-8-2.805" transform="translate(-1427.759 -1015.345)"/><path class="a" d="M1481.335,896.23a1.338,1.338,0,0,0-.823,1.455c0,.005,0,.011,0,.016a1.338,1.338,0,0,0,1,1.34,8.177,8.177,0,0,0,8.288-1.781.218.218,0,0,0-.019-.3,8.176,8.176,0,0,0-8.446-.728" transform="translate(-1436.224 -868.538)"/><path class="a" d="M1455.159,735.55a1.338,1.338,0,0,0-.435,1.614s0,.01,0,.015a1.338,1.338,0,0,0,1.3,1.05,8.176,8.176,0,0,0,7.585-3.786.218.218,0,0,0-.094-.288,8.177,8.177,0,0,0-8.362,1.4" transform="translate(-1411.111 -711.551)"/><path class="a" d="M1397.31,574.946a1.339,1.339,0,0,0-.021,1.672l.008.013a1.338,1.338,0,0,0,1.521.693,8.177,8.177,0,0,0,6.405-5.553.218.218,0,0,0-.163-.256,8.176,8.176,0,0,0-7.751,3.431" transform="translate(-1355.211 -554.259)"/><path class="a" d="M1312.159,426.447a1.339,1.339,0,0,0,.4,1.624l.011.011a1.338,1.338,0,0,0,1.646.293,8.176,8.176,0,0,0,4.823-6.971.218.218,0,0,0-.221-.207,8.177,8.177,0,0,0-6.655,5.251" transform="translate(-1272.771 -408.483)"/><path class="a" d="M1205.683,313.247l.014.008a1.338,1.338,0,0,0,1.667-.125,8.177,8.177,0,0,0,2.938-7.952.218.218,0,0,0-.266-.146,8.177,8.177,0,0,0-5.14,6.741,1.339,1.339,0,0,0,.787,1.474" transform="translate(-1168.811 -295.773)"/><path class="a" d="M1079.884,241.407l.015,0a1.338,1.338,0,0,0,1.583-.536,8.177,8.177,0,0,0,.868-8.432.218.218,0,0,0-.294-.075,8.176,8.176,0,0,0-3.3,7.807,1.338,1.338,0,0,0,1.129,1.232" transform="translate(-1046.358 -225.255)"/></g></g></svg>